# xmcd
#
# Track frame offsets:
#	150
#	17924
#	26371
#	36009
#	47121
#	56496
#	67964
#	75912
#	88629
#	101170
#	112010
#	120912
#	131160
#	141742
#	152845
#	161887
#	172081
#	180802
#	190770
#	199049
#	209517
#	218785
#	229717
#	238203
#	251055
#	260992
#	274533
#	282931
#	296412
#	305402
#	318051
#
# Disc length: 4367 seconds
#
# Revision: 1
# Processed by: cddbd v1.5.2PL0 Copyright (c) Steve Scherf et al.
# Submitted via: audiograbber 1.83.01
#
DISCID=c5110d1f
DTITLE=Johnny Cash - The Gospel According to
DYEAR=2014
DGENRE=Gospel
TTITLE0=Were You There (When They Crucified My Lord)
TTITLE1=Swing Low, Sweet Chariot
TTITLE2=The Great Speckled Bird
TTITLE3=He'll Understand And Say Well Done 
TTITLE4=It Was Jesus
TTITLE5=I Saw A Man
TTITLE6=I Call Him
TTITLE7=God Must Have My Fortune Laid Away
TTITLE8=When I've Learned 
TTITLE9=The Old Account
TTITLE10=Lead Me Gently Home
TTITLE11=I Was There When It Happened
TTITLE12=Snow In His Hair
TTITLE13=Lead Me Father
TTITLE14=I Got Shoes
TTITLE15=These Things Shall Pass
TTITLE16=He'll Be A Friend
TTITLE17=These Hands
TTITLE18=It Could Be You (Instead Of Him)
TTITLE19=God Will
TTITLE20=When He Reached Down His Hand For Me 
TTITLE21=When I Take My Vacation In Heaven
TTITLE22=Are All The Children In
TTITLE23=Suppertime
TTITLE24=Let The Lower Lights Be Burning
TTITLE25=If We Never Meet Again
TTITLE26=Taller Than Trees
TTITLE27=I Won't Have To Cross Jordan Alone
TTITLE28=My God Is Real (Yes, God Is Real)
TTITLE29=(There'll Be) Peace In The Valley
TTITLE30=Why Me Lord?
EXTD=
EXTT0=
EXTT1=
EXTT2=
EXTT3=
EXTT4=
EXTT5=
EXTT6=
EXTT7=
EXTT8=
EXTT9=
EXTT10=
EXTT11=
EXTT12=
EXTT13=
EXTT14=
EXTT15=
EXTT16=
EXTT17=
EXTT18=
EXTT19=
EXTT20=
EXTT21=
EXTT22=
EXTT23=
EXTT24=
EXTT25=
EXTT26=
EXTT27=
EXTT28=
EXTT29=
EXTT30=
PLAYORDER=
